<svg width="49" height="33" viewBox="0 0 49 33" fill="none" xmlns="http://www.w3.org/2000/svg">
<path d="M47.8912 2.26869C47.3398 4.23012 46.5966 5.93741 45.6654 7.48761L45.7042 7.4183C44.7894 9.14331 43.6969 11.1363 42.4268 13.3973C41.3377 15.1824 40.7612 16.1065 40.6972 16.1696C40.4154 16.5693 40.2194 17.0591 40.152 17.5974L40.1499 17.6136C40.2051 18.1033 40.4052 18.5307 40.6972 18.8496L41.514 19.8799C45.8839 24.961 48.3418 28.4634 48.8877 30.3871C48.9592 30.5996 49 30.8445 49 31.101C49 31.5491 48.8734 31.9627 48.659 32.3023L48.6631 32.2954C48.3037 32.7135 47.8013 32.9723 47.2459 32.9723C47.1847 32.9723 47.1213 32.97 47.0621 32.963H47.0703H41.6978C41.6957 32.963 41.6917 32.963 41.6876 32.963C40.9994 32.963 40.3664 32.6904 39.8702 32.2376L39.8763 32.2422C39.1534 31.5699 38.5102 30.8422 37.9344 30.0521L37.916 30.0244C36.9753 28.8215 36.1408 27.8088 35.4125 26.9863C32.9866 24.3773 31.1964 23.0727 30.042 23.0727C29.9991 23.0681 29.9501 23.0658 29.8991 23.0658C29.5621 23.0658 29.2477 23.1836 28.9883 23.3846L28.9945 23.38C28.7821 23.6803 28.6534 24.0685 28.6534 24.4866C28.6534 24.5698 28.6575 24.6483 28.6677 24.7292V24.72C28.6126 25.4454 28.5799 26.2886 28.5799 27.1411C28.5799 27.4161 28.584 27.6887 28.5901 27.9613V27.922V30.5996C28.6106 30.7082 28.6228 30.833 28.6228 30.96C28.6228 31.5191 28.3982 32.0181 28.047 32.3485L28.0449 32.3508C27.2547 32.7597 26.3317 33 25.3576 33C25.1494 33 24.9452 32.9884 24.743 32.9677L24.7695 32.97C21.5554 32.9007 18.5741 31.8356 16.04 30.0405L16.1114 30.0867C13.026 27.9659 10.4694 25.2051 8.5213 21.943L8.46616 21.846C6.6161 19.069 4.89061 15.9317 3.42036 12.6234L3.27742 12.2676C2.41774 10.4147 1.52742 8.1368 0.759627 5.79418L0.637106 5.36677C0.324679 4.31329 0.0980163 3.08884 0.00408401 1.8205L0 1.76274C0 0.595282 0.607157 0.0115517 1.82147 0.0115517H7.19195C7.24096 0.0069311 7.29813 0.00462022 7.35735 0.00462022C7.86377 0.00462022 8.33139 0.200994 8.70099 0.531364L8.69691 0.526744C9.10531 1.03269 9.40753 1.65416 9.55659 2.34724L9.56272 2.37496C10.5511 5.53311 11.5986 8.18531 12.8034 10.7266L12.6666 10.4101C13.6508 12.6511 14.7392 14.5802 15.9807 16.3614L15.9338 16.2898C17.0229 17.8022 17.8723 18.5585 18.4822 18.5585C18.5006 18.5608 18.523 18.5608 18.5476 18.5608C18.8498 18.5608 19.1132 18.3759 19.2561 18.0987L19.2582 18.0941C19.4093 17.6551 19.4971 17.1446 19.4971 16.6132C19.4971 16.5 19.493 16.3868 19.4848 16.2759V16.2898V7.3282C19.4419 6.2724 19.2132 5.28591 18.8314 4.40108L18.8477 4.44497C18.5945 3.83506 18.2903 3.30832 17.9288 2.83933L17.9349 2.84857C17.6001 2.46969 17.3714 1.97298 17.2999 1.41851L17.2978 1.40465C17.2978 1.0119 17.4571 0.658429 17.7062 0.427401L17.7083 0.425091C17.9554 0.16865 18.2862 0.0138618 18.6476 0.0138618H18.6639H27.1301C27.175 0.00693093 27.2261 0.00462022 27.2792 0.00462022C27.6774 0.00462022 28.0347 0.207925 28.2716 0.526744L28.2736 0.529054C28.484 0.963386 28.6085 1.4832 28.6085 2.03304C28.6085 2.12083 28.6044 2.20632 28.5983 2.2918V2.28024V14.2313C28.5942 14.2868 28.5922 14.3514 28.5922 14.4161C28.5922 14.8412 28.6963 15.2409 28.876 15.5805L28.8719 15.5713C29.021 15.8208 29.2701 15.9825 29.5519 15.9825H29.554C29.9134 15.9548 30.2401 15.8208 30.5158 15.6082L30.5096 15.6129C31.0651 15.1808 31.5429 14.6887 31.9574 14.132L31.9656 14.1204C33.2051 12.5356 34.3486 10.7844 35.3451 8.92229L35.4247 8.76057C36.1272 7.44371 36.8868 5.8219 37.575 4.15619L37.7016 3.81658L38.6123 1.75581C38.9288 0.725426 39.7783 0 40.7768 0C40.8156 0 40.8544 -1.67557e-07 40.8932 0.00231011H40.8871H46.2596C47.7108 0.00231011 48.2553 0.757771 47.8932 2.26869H47.8912Z" fill="#161617"/>
</svg>
