<svg width="97" height="50" viewBox="0 0 97 50" fill="none" xmlns="http://www.w3.org/2000/svg">
<path d="M1.64446 17.7268L8.24444 17.7101L14.7333 37.6937L20.8044 17.6783L27.6044 17.661L33.8933 37.6451L40.1643 17.6292L46.7643 17.6125L37.4888 45.636L30.3289 45.6542L24.2449 26.7895L18.3289 45.6846L11.1689 45.7027L1.64446 17.7268ZM68.8169 45.5566L45.2969 45.6162L45.1724 17.6165L68.6924 17.5569L68.7191 23.5569L51.5991 23.6002L51.6222 28.8002L66.7422 28.7619L66.7671 34.3618L51.6471 34.4001L51.6702 39.6001L68.7902 39.5567L68.8169 45.5566ZM85.2312 45.5151L68.4312 45.5576L68.3068 17.5579L84.3067 17.5174C87.5334 17.5092 89.8694 18.1166 91.3149 19.3396C92.7869 20.5359 93.5287 22.454 93.5405 25.094C93.5527 27.8406 92.7348 29.816 91.0868 31.0202C93.2786 32.1613 94.3818 34.3852 94.3965 37.6918C94.4086 40.4118 93.6841 42.4003 92.223 43.6573C90.7885 44.8876 88.4579 45.5069 85.2312 45.5151ZM74.8046 39.5415L85.2045 39.5151C86.3245 39.5123 87.1369 39.2969 87.6417 38.8689C88.1463 38.4143 88.3966 37.7204 88.3924 36.787C88.3883 35.8537 88.1319 35.1744 87.6233 34.749C87.1148 34.3236 86.3005 34.1123 85.1805 34.1152L74.7805 34.1415L74.8046 39.5415ZM74.7556 28.5416L84.1556 28.5178C85.3289 28.5148 86.1814 28.3126 86.7129 27.9113C87.2712 27.5099 87.5483 26.8692 87.5444 25.9892C87.5406 25.1358 87.2845 24.5098 86.776 24.1111C86.2676 23.7124 85.4534 23.5145 84.3334 23.5173L74.7334 23.5416L74.7556 28.5416Z" fill="white"/>
<path d="M0.718115 12.6374L3.16611 12.6312C3.31576 13.1522 3.64614 13.5367 4.15724 13.7847C4.6683 14.0214 5.41116 14.1385 6.38582 14.1361C8.18782 14.1315 9.08703 13.7269 9.08345 12.9222C9.08174 12.5369 8.84235 12.2258 8.36529 11.989C7.88824 11.7523 7.05426 11.5334 5.86335 11.3324C3.95785 10.9972 2.64696 10.5755 1.9307 10.0673C1.22572 9.5478 0.870931 8.77236 0.866345 7.74104C0.860953 6.52839 1.265 5.63769 2.07847 5.06897C2.8919 4.4889 4.15428 4.19671 5.86561 4.19237C7.5316 4.18815 8.78524 4.47964 9.62653 5.06684C10.4678 5.64271 10.982 6.59908 11.1693 7.93594L8.6703 7.94227C8.5546 7.40989 8.25822 7.02531 7.78117 6.78852C7.31539 6.54037 6.62917 6.41744 5.72251 6.41973C4.03385 6.42401 3.19126 6.81715 3.19473 7.59914C3.1963 7.95047 3.41289 8.23326 3.84451 8.4475C4.28747 8.66171 5.08742 8.87501 6.24438 9.08742C8.21798 9.44508 9.57428 9.88365 10.3133 10.4031C11.0522 10.9226 11.424 11.7036 11.4287 12.7463C11.4341 13.9703 11.0075 14.8837 10.1489 15.4865C9.29015 16.078 7.96546 16.3761 6.1748 16.3806C4.45214 16.385 3.15884 16.0936 2.29488 15.5064C1.43093 14.9193 0.905344 13.9629 0.718115 12.6374ZM17.245 6.54354L17.2351 4.29956L28.88 4.27006L28.89 6.51404L24.266 6.52575L24.3089 16.1817L21.912 16.1877L21.869 6.53183L17.245 6.54354ZM35.6342 4.25295L38.0312 4.24687L38.0602 10.7748C38.0653 11.9195 38.3353 12.7518 38.8703 13.2718C39.4053 13.7917 40.2564 14.0503 41.4238 14.0473C42.5911 14.0443 43.4343 13.7815 43.9533 13.2589C44.4836 12.7362 44.7463 11.9025 44.7412 10.7579L44.7122 4.22995L47.1091 4.22387L47.139 10.9388C47.1473 12.8088 46.7 14.1699 45.7971 15.0222C44.8942 15.8632 43.4397 16.2862 41.4338 16.2913C39.4278 16.2964 37.9639 15.8807 37.0422 15.0444C36.1317 14.1967 35.6724 12.8379 35.664 10.9679L35.6342 4.25295ZM54.6229 16.1049L54.57 4.20497L59.636 4.19214C61.7666 4.18674 63.3157 4.65315 64.2832 5.59136C65.2621 6.52955 65.7561 8.0413 65.7654 10.1266C65.7747 12.2119 65.2941 13.7261 64.3236 14.6693C63.3645 15.6124 61.8195 16.0866 59.6889 16.092L54.6229 16.1049ZM57.0099 13.8548L59.5939 13.8483C60.9312 13.8449 61.899 13.5534 62.497 12.9739C63.0951 12.3831 63.3912 11.436 63.3854 10.1326C63.3796 8.82932 63.0751 7.88943 62.4719 7.31296C61.8686 6.72515 60.8983 6.43294 59.561 6.43633L56.977 6.44288L57.0099 13.8548ZM73.0081 16.0583L72.9552 4.15839L75.3522 4.15232L75.4051 16.0522L73.0081 16.0583ZM88.6683 3.96558C90.7989 3.96018 92.3481 4.43792 93.3157 5.39881C94.2946 6.35966 94.7889 7.91108 94.7984 10.0531C94.8079 12.1837 94.3274 13.7376 93.3571 14.7147C92.3981 15.6805 90.8532 16.1661 88.7226 16.1715C86.5806 16.1769 85.0258 15.6992 84.0581 14.7383C83.0905 13.7661 82.6019 12.2146 82.5924 10.084C82.5829 7.942 83.0577 6.38813 84.0167 5.42237C84.9758 4.4566 86.5263 3.97101 88.6683 3.96558ZM85.8433 7.13474C85.2567 7.74823 84.9664 8.7293 84.9724 10.078C84.9784 11.4266 85.2774 12.4062 85.8695 13.0167C86.4616 13.6272 87.4092 13.9308 88.7126 13.9275C90.0159 13.9242 90.9609 13.6158 91.5475 13.0023C92.1341 12.3888 92.4244 11.4077 92.4184 10.0591C92.4124 8.71043 92.1134 7.73086 91.5213 7.12036C90.9292 6.49852 89.9815 6.18926 88.6782 6.19256C87.3749 6.19586 86.4299 6.50992 85.8433 7.13474Z" fill="white"/>
</svg>
